<svg xmlns="http://www.w3.org/2000/svg" viewBox="0 0 1200 620" width="1200" height="620">
  <defs>
    <linearGradient id="sky" x1="0" x2="1" y1="0" y2="1"><stop offset="0" stop-color="#dceeff"/><stop offset="0.55" stop-color="#f5fbff"/><stop offset="1" stop-color="#ffffff"/></linearGradient>
    <linearGradient id="water" x1="0" x2="0" y1="0" y2="1"><stop offset="0" stop-color="#7fb0d6"/><stop offset="1" stop-color="#d7edf7"/></linearGradient>
    <linearGradient id="navy" x1="0" x2="1"><stop offset="0" stop-color="#0b2b57"/><stop offset="1" stop-color="#214f8f"/></linearGradient>
    <filter id="soft" x="-20%" y="-20%" width="140%" height="140%"><feDropShadow dx="0" dy="12" stdDeviation="14" flood-color="#0c2344" flood-opacity=".16"/></filter>
  </defs>
  <rect width="1200" height="620" fill="url(#sky)"/><rect y="410" width="1200" height="210" fill="url(#water)"/><path d="M325 410 L600 120 L890 410 Z" fill="#6fa2c8"/><path d="M600 120 L512 275 L575 240 L602 318 L652 230 L700 282 Z" fill="#fff"/><path d="M0 420 C300 370 550 460 850 410 C1000 385 1110 400 1200 380" stroke="#0b2b57" stroke-width="8" opacity=".12"/><g fill="#295b34" opacity=".65"><path d="M0 420 C120 370 240 405 360 390 C210 430 110 440 0 445Z"/><path d="M850 400 C960 360 1050 370 1200 340 L1200 445 C1080 430 950 420 850 400Z"/></g>
</svg>