<svg xmlns="http://www.w3.org/2000/svg" viewBox="0 0 1200 620" width="1200" height="620">
  <defs>
    <linearGradient id="sky" x1="0" x2="1" y1="0" y2="1"><stop offset="0" stop-color="#dceeff"/><stop offset="0.55" stop-color="#f5fbff"/><stop offset="1" stop-color="#ffffff"/></linearGradient>
    <linearGradient id="water" x1="0" x2="0" y1="0" y2="1"><stop offset="0" stop-color="#7fb0d6"/><stop offset="1" stop-color="#d7edf7"/></linearGradient>
    <linearGradient id="navy" x1="0" x2="1"><stop offset="0" stop-color="#0b2b57"/><stop offset="1" stop-color="#214f8f"/></linearGradient>
    <filter id="soft" x="-20%" y="-20%" width="140%" height="140%"><feDropShadow dx="0" dy="12" stdDeviation="14" flood-color="#0c2344" flood-opacity=".16"/></filter>
  </defs>
  <rect width="1200" height="620" fill="#0e2445"/><radialGradient id="glow" cx="65%" cy="20%" r="75%"><stop offset="0" stop-color="#345f9d"/><stop offset="1" stop-color="#0e2445"/></radialGradient><rect width="1200" height="620" fill="url(#glow)"/><rect y="430" width="1200" height="190" fill="#07182f"/><g fill="#f6b65a" opacity=".9"><rect x="130" y="280" width="60" height="150"/><rect x="205" y="220" width="88" height="210"/><rect x="340" y="310" width="75" height="120"/><rect x="720" y="250" width="95" height="180"/><rect x="850" y="190" width="70" height="240"/></g><path d="M0 468 C320 435 545 500 800 455 C950 430 1080 445 1200 420" stroke="#ff6d4a" stroke-width="10" opacity=".65" fill="none"/>
</svg>