<svg xmlns="http://www.w3.org/2000/svg" viewBox="0 0 1200 620" width="1200" height="620">
  <defs>
    <linearGradient id="sky" x1="0" x2="1" y1="0" y2="1"><stop offset="0" stop-color="#dceeff"/><stop offset="0.55" stop-color="#f5fbff"/><stop offset="1" stop-color="#ffffff"/></linearGradient>
    <linearGradient id="water" x1="0" x2="0" y1="0" y2="1"><stop offset="0" stop-color="#7fb0d6"/><stop offset="1" stop-color="#d7edf7"/></linearGradient>
    <linearGradient id="navy" x1="0" x2="1"><stop offset="0" stop-color="#0b2b57"/><stop offset="1" stop-color="#214f8f"/></linearGradient>
    <filter id="soft" x="-20%" y="-20%" width="140%" height="140%"><feDropShadow dx="0" dy="12" stdDeviation="14" flood-color="#0c2344" flood-opacity=".16"/></filter>
  </defs>
  <rect width="1200" height="620" fill="url(#sky)"/><rect y="400" width="1200" height="220" fill="url(#water)"/><g fill="#527da5" opacity=".58"><rect x="130" y="280" width="60" height="140"/><rect x="215" y="250" width="80" height="170"/><rect x="310" y="315" width="110" height="105"/><path d="M830 95 L858 95 L870 420 L816 420 Z"/><circle cx="844" cy="80" r="17"/><rect x="790" y="205" width="115" height="14" rx="7"/></g><path d="M0 420 C220 380 420 455 630 420 C860 382 1000 410 1200 385" stroke="#2e5a86" stroke-width="10" opacity=".28" fill="none"/><path d="M0 345 C180 345 350 375 520 355" stroke="#d4a9b6" stroke-width="32" opacity=".55"/>
</svg>