<svg xmlns="http://www.w3.org/2000/svg" viewBox="0 0 1200 620" width="1200" height="620">
  <defs>
    <linearGradient id="sky" x1="0" x2="1" y1="0" y2="1"><stop offset="0" stop-color="#dceeff"/><stop offset="0.55" stop-color="#f5fbff"/><stop offset="1" stop-color="#ffffff"/></linearGradient>
    <linearGradient id="water" x1="0" x2="0" y1="0" y2="1"><stop offset="0" stop-color="#7fb0d6"/><stop offset="1" stop-color="#d7edf7"/></linearGradient>
    <linearGradient id="navy" x1="0" x2="1"><stop offset="0" stop-color="#0b2b57"/><stop offset="1" stop-color="#214f8f"/></linearGradient>
    <filter id="soft" x="-20%" y="-20%" width="140%" height="140%"><feDropShadow dx="0" dy="12" stdDeviation="14" flood-color="#0c2344" flood-opacity=".16"/></filter>
  </defs>
  <rect width="1200" height="620" fill="url(#sky)"/><path d="M0 460 L1200 360 L1200 620 L0 620Z" fill="#d7e3ed"/><g transform="translate(280 330)"><rect x="0" y="50" width="330" height="110" rx="32" fill="#1f66a6"/><path d="M55 50 L105 0 H225 L285 50Z" fill="#3e85c4"/><circle cx="78" cy="170" r="38" fill="#0b2b57"/><circle cx="260" cy="170" r="38" fill="#0b2b57"/><rect x="120" y="22" width="82" height="42" fill="#dff0ff"/></g><path d="M810 180 L1040 110 L980 180 L1040 250 Z" fill="#416f9e" opacity=".8"/><rect x="720" y="250" width="70" height="210" fill="#7399bd" opacity=".6"/><rect x="805" y="210" width="110" height="250" fill="#557da6" opacity=".58"/>
</svg>