<svg xmlns="http://www.w3.org/2000/svg" viewBox="0 0 1200 620" width="1200" height="620">
  <defs>
    <linearGradient id="sky" x1="0" x2="1" y1="0" y2="1"><stop offset="0" stop-color="#dceeff"/><stop offset="0.55" stop-color="#f5fbff"/><stop offset="1" stop-color="#ffffff"/></linearGradient>
    <linearGradient id="water" x1="0" x2="0" y1="0" y2="1"><stop offset="0" stop-color="#7fb0d6"/><stop offset="1" stop-color="#d7edf7"/></linearGradient>
    <linearGradient id="navy" x1="0" x2="1"><stop offset="0" stop-color="#0b2b57"/><stop offset="1" stop-color="#214f8f"/></linearGradient>
    <filter id="soft" x="-20%" y="-20%" width="140%" height="140%"><feDropShadow dx="0" dy="12" stdDeviation="14" flood-color="#0c2344" flood-opacity=".16"/></filter>
  </defs>
  <rect width="1200" height="620" fill="#edf7ff"/><path d="M0 465 C220 420 420 470 600 430 C815 380 1030 420 1200 360 L1200 620 L0 620Z" fill="#dceaf6"/><path d="M470 430 L620 150 L780 430Z" fill="#9bc1df"/><path d="M620 150 L572 260 L615 240 L626 300 L665 235 L700 275Z" fill="#fff"/><g transform="translate(830 245)"><path d="M0 145 L260 145 L220 105 L40 105Z" fill="#b23c30"/><path d="M35 105 L225 105 L185 70 L75 70Z" fill="#d4513f"/><rect x="92" y="145" width="76" height="95" fill="#f8e6ca"/></g><path d="M130 510 C290 440 470 500 610 470 C760 430 920 490 1080 420" stroke="#0b2b57" stroke-width="10" opacity=".22" fill="none"/>
</svg>