<svg xmlns="http://www.w3.org/2000/svg" viewBox="0 0 1200 620" width="1200" height="620">
  <defs>
    <linearGradient id="sky" x1="0" x2="1" y1="0" y2="1"><stop offset="0" stop-color="#dceeff"/><stop offset="0.55" stop-color="#f5fbff"/><stop offset="1" stop-color="#ffffff"/></linearGradient>
    <linearGradient id="water" x1="0" x2="0" y1="0" y2="1"><stop offset="0" stop-color="#7fb0d6"/><stop offset="1" stop-color="#d7edf7"/></linearGradient>
    <linearGradient id="navy" x1="0" x2="1"><stop offset="0" stop-color="#0b2b57"/><stop offset="1" stop-color="#214f8f"/></linearGradient>
    <filter id="soft" x="-20%" y="-20%" width="140%" height="140%"><feDropShadow dx="0" dy="12" stdDeviation="14" flood-color="#0c2344" flood-opacity=".16"/></filter>
  </defs>
  <rect width="1200" height="620" fill="#f3fbff"/><rect y="250" width="1200" height="370" fill="#dff1ea"/><path d="M450 0 C390 130 388 225 455 340 C500 420 515 505 470 620 L730 620 C675 485 710 400 760 330 C840 225 800 105 760 0Z" fill="#6a9a83" opacity=".9"/><path d="M500 0 C440 120 455 235 512 330 C565 420 570 535 540 620 L660 620 C630 500 640 410 705 315 C760 225 745 105 705 0Z" fill="#cfe7ef"/><g fill="#2f6547"><circle cx="140" cy="120" r="80" opacity=".8"/><circle cx="220" cy="170" r="100" opacity=".7"/><circle cx="1040" cy="120" r="95" opacity=".75"/><circle cx="950" cy="170" r="105" opacity=".65"/></g><path d="M400 350 Q600 310 800 350" stroke="#1b3d3c" stroke-width="12" opacity=".5" fill="none"/>
</svg>