<svg xmlns="http://www.w3.org/2000/svg" viewBox="0 0 1200 620" width="1200" height="620">
  <defs>
    <linearGradient id="sky" x1="0" x2="1" y1="0" y2="1"><stop offset="0" stop-color="#dceeff"/><stop offset="0.55" stop-color="#f5fbff"/><stop offset="1" stop-color="#ffffff"/></linearGradient>
    <linearGradient id="water" x1="0" x2="0" y1="0" y2="1"><stop offset="0" stop-color="#7fb0d6"/><stop offset="1" stop-color="#d7edf7"/></linearGradient>
    <linearGradient id="navy" x1="0" x2="1"><stop offset="0" stop-color="#0b2b57"/><stop offset="1" stop-color="#214f8f"/></linearGradient>
    <filter id="soft" x="-20%" y="-20%" width="140%" height="140%"><feDropShadow dx="0" dy="12" stdDeviation="14" flood-color="#0c2344" flood-opacity=".16"/></filter>
  </defs>
  <rect width="1200" height="620" fill="#edf4f7"/><rect y="410" width="1200" height="210" fill="#d5d7d2"/><g fill="#6f5746"><rect x="80" y="120" width="240" height="330" rx="6"/><rect x="350" y="90" width="220" height="360" rx="6"/><rect x="670" y="130" width="210" height="320" rx="6"/><rect x="910" y="110" width="210" height="340" rx="6"/></g><g fill="#1c365d"><rect x="120" y="180" width="160" height="80"/><rect x="390" y="160" width="140" height="90"/><rect x="705" y="190" width="140" height="75"/><rect x="950" y="180" width="120" height="80"/></g><path d="M0 520 C250 470 400 490 560 520 S930 560 1200 500" stroke="#a5aa9f" stroke-width="16" fill="none"/><circle cx="630" cy="380" r="42" fill="#1d3557" opacity=".35"/>
</svg>