<svg xmlns="http://www.w3.org/2000/svg" viewBox="0 0 1200 620" width="1200" height="620">
  <defs>
    <linearGradient id="sky" x1="0" x2="1" y1="0" y2="1"><stop offset="0" stop-color="#dceeff"/><stop offset="0.55" stop-color="#f5fbff"/><stop offset="1" stop-color="#ffffff"/></linearGradient>
    <linearGradient id="water" x1="0" x2="0" y1="0" y2="1"><stop offset="0" stop-color="#7fb0d6"/><stop offset="1" stop-color="#d7edf7"/></linearGradient>
    <linearGradient id="navy" x1="0" x2="1"><stop offset="0" stop-color="#0b2b57"/><stop offset="1" stop-color="#214f8f"/></linearGradient>
    <filter id="soft" x="-20%" y="-20%" width="140%" height="140%"><feDropShadow dx="0" dy="12" stdDeviation="14" flood-color="#0c2344" flood-opacity=".16"/></filter>
  </defs>
  <rect width="1200" height="620" fill="url(#sky)"/><rect y="410" width="1200" height="210" fill="#e9f4fb"/><g fill="#274f7e" opacity=".7"><rect x="120" y="280" width="70" height="170" rx="4"/><rect x="210" y="230" width="54" height="220" rx="4"/><rect x="290" y="330" width="90" height="120" rx="4"/><rect x="410" y="270" width="60" height="180" rx="4"/><rect x="510" y="320" width="86" height="130" rx="4"/><path d="M810 115 L840 115 L850 450 L800 450 Z"/><circle cx="825" cy="105" r="20"/><rect x="760" y="225" width="130" height="16" rx="8"/></g><path d="M0 450 Q230 400 410 445 T790 438 T1200 420" fill="none" stroke="#7da9ca" stroke-width="10" opacity=".45"/>
</svg>